<?xml version="1.0" encoding="utf-8"?>
<!-- Generator: Adobe Illustrator 24.2.1, SVG Export Plug-In . SVG Version: 6.00 Build 0)  -->
<svg version="1.1" id="Calque_1" xmlns="http://www.w3.org/2000/svg" xmlns:xlink="http://www.w3.org/1999/xlink" x="0px" y="0px"
	 viewBox="0 0 16 16" style="enable-background:new 0 0 16 16;" xml:space="preserve">
<style type="text/css">
	.st0{fill:url(#SVGID_1_);}
	.st1{fill:#FFFFFF;}
</style>
<linearGradient id="SVGID_1_" gradientUnits="userSpaceOnUse" x1="7.8777" y1="16.1287" x2="7.8777" y2="-1.0415">
	<stop  offset="0" style="stop-color:#8767AA"/>
	<stop  offset="1" style="stop-color:#F299C1"/>
</linearGradient>
<rect x="-1.04" y="-0.76" class="st0" width="17.84" height="17.17"/>
<g id="Calque_2">
</g>
<path class="st1" d="M9.07,2.86c1.73,0,3.01,0.35,3.82,1.05c0.83,0.7,1.24,1.62,1.24,2.75c0,0.38-0.05,0.81-0.15,1.28
	c-0.24,1.04-0.69,1.96-1.36,2.75c-0.66,0.78-1.48,1.38-2.45,1.82c-0.96,0.42-1.99,0.63-3.12,0.63c-1.77,0-3.08-0.35-3.94-1.05
	c-0.84-0.71-1.26-1.66-1.26-2.83c0-0.39,0.05-0.83,0.15-1.32c0.24-0.99,0.7-1.87,1.38-2.64c0.69-0.78,1.52-1.38,2.5-1.8
	C6.89,3.08,7.95,2.86,9.07,2.86z M9.01,4.56c-0.27,0-0.55,0.24-0.86,0.73C7.86,5.76,7.51,6.66,7.1,7.98
	c-0.41,1.33-0.61,2.26-0.61,2.79c0,0.28,0.04,0.47,0.13,0.57c0.09,0.09,0.21,0.13,0.36,0.13c0.27,0.03,0.54-0.2,0.82-0.69
	C8.1,10.31,8.47,9.36,8.9,7.96c0.39-1.24,0.59-2.13,0.59-2.69c0-0.27-0.04-0.45-0.13-0.55C9.28,4.61,9.17,4.56,9.01,4.56z"/>
</svg>
